<svg width="816" height="294" viewBox="0 0 816 294" fill="none" xmlns="http://www.w3.org/2000/svg">
<path d="M266.573 140.8C266.573 133.867 268.073 127.7 271.073 122.3C274.073 116.833 278.24 112.6 283.573 109.6C288.973 106.533 295.073 105 301.873 105C310.207 105 317.34 107.2 323.273 111.6C329.207 116 333.173 122 335.173 129.6H316.373C314.973 126.667 312.973 124.433 310.373 122.9C307.84 121.367 304.94 120.6 301.673 120.6C296.407 120.6 292.14 122.433 288.873 126.1C285.607 129.767 283.973 134.667 283.973 140.8C283.973 146.933 285.607 151.833 288.873 155.5C292.14 159.167 296.407 161 301.673 161C304.94 161 307.84 160.233 310.373 158.7C312.973 157.167 314.973 154.933 316.373 152H335.173C333.173 159.6 329.207 165.6 323.273 170C317.34 174.333 310.207 176.5 301.873 176.5C295.073 176.5 288.973 175 283.573 172C278.24 168.933 274.073 164.7 271.073 159.3C268.073 153.9 266.573 147.733 266.573 140.8ZM371.045 176.8C365.579 176.8 360.645 175.633 356.245 173.3C351.912 170.967 348.479 167.633 345.945 163.3C343.479 158.967 342.245 153.9 342.245 148.1C342.245 142.367 343.512 137.333 346.045 133C348.579 128.6 352.045 125.233 356.445 122.9C360.845 120.567 365.779 119.4 371.245 119.4C376.712 119.4 381.645 120.567 386.045 122.9C390.445 125.233 393.912 128.6 396.445 133C398.979 137.333 400.245 142.367 400.245 148.1C400.245 153.833 398.945 158.9 396.345 163.3C393.812 167.633 390.312 170.967 385.845 173.3C381.445 175.633 376.512 176.8 371.045 176.8ZM371.045 162C374.312 162 377.079 160.8 379.345 158.4C381.679 156 382.845 152.567 382.845 148.1C382.845 143.633 381.712 140.2 379.445 137.8C377.245 135.4 374.512 134.2 371.245 134.2C367.912 134.2 365.145 135.4 362.945 137.8C360.745 140.133 359.645 143.567 359.645 148.1C359.645 152.567 360.712 156 362.845 158.4C365.045 160.8 367.779 162 371.045 162ZM443.317 119.6C449.851 119.6 455.051 121.733 458.917 126C462.851 130.2 464.817 136 464.817 143.4V176H447.817V145.7C447.817 141.967 446.851 139.067 444.917 137C442.984 134.933 440.384 133.9 437.117 133.9C433.851 133.9 431.251 134.933 429.317 137C427.384 139.067 426.417 141.967 426.417 145.7V176H409.317V120.2H426.417V127.6C428.151 125.133 430.484 123.2 433.417 121.8C436.351 120.333 439.651 119.6 443.317 119.6ZM504.7 134.4H495.5V176H478.4V134.4H472.2V120.2H478.4V118.6C478.4 111.733 480.367 106.533 484.3 103C488.233 99.4 494 97.6 501.6 97.6C502.867 97.6 503.8 97.6333 504.4 97.7V112.2C501.133 112 498.833 112.467 497.5 113.6C496.167 114.733 495.5 116.767 495.5 119.7V120.2H504.7V134.4ZM529.835 129.5C531.835 126.433 534.335 124.033 537.335 122.3C540.335 120.5 543.668 119.6 547.335 119.6V137.7H542.635C538.368 137.7 535.168 138.633 533.035 140.5C530.902 142.3 529.835 145.5 529.835 150.1V176H512.735V120.2H529.835V129.5ZM564.109 114.4C561.109 114.4 558.642 113.533 556.709 111.8C554.842 110 553.909 107.8 553.909 105.2C553.909 102.533 554.842 100.333 556.709 98.6C558.642 96.8 561.109 95.9 564.109 95.9C567.042 95.9 569.442 96.8 571.309 98.6C573.242 100.333 574.209 102.533 574.209 105.2C574.209 107.8 573.242 110 571.309 111.8C569.442 113.533 567.042 114.4 564.109 114.4ZM572.609 120.2V176H555.509V120.2H572.609ZM619.001 119.6C625.534 119.6 630.734 121.733 634.601 126C638.534 130.2 640.501 136 640.501 143.4V176H623.501V145.7C623.501 141.967 622.534 139.067 620.601 137C618.667 134.933 616.067 133.9 612.801 133.9C609.534 133.9 606.934 134.933 605.001 137C603.067 139.067 602.101 141.967 602.101 145.7V176H585.001V120.2H602.101V127.6C603.834 125.133 606.167 123.2 609.101 121.8C612.034 120.333 615.334 119.6 619.001 119.6ZM673.584 119.4C677.517 119.4 680.95 120.2 683.884 121.8C686.884 123.4 689.184 125.5 690.784 128.1V120.2H707.884V175.9C707.884 181.033 706.85 185.667 704.784 189.8C702.784 194 699.684 197.333 695.484 199.8C691.35 202.267 686.184 203.5 679.984 203.5C671.717 203.5 665.017 201.533 659.884 197.6C654.75 193.733 651.817 188.467 651.084 181.8H667.984C668.517 183.933 669.784 185.6 671.784 186.8C673.784 188.067 676.25 188.7 679.184 188.7C682.717 188.7 685.517 187.667 687.584 185.6C689.717 183.6 690.784 180.367 690.784 175.9V168C689.117 170.6 686.817 172.733 683.884 174.4C680.95 176 677.517 176.8 673.584 176.8C668.984 176.8 664.817 175.633 661.084 173.3C657.35 170.9 654.384 167.533 652.184 163.2C650.05 158.8 648.984 153.733 648.984 148C648.984 142.267 650.05 137.233 652.184 132.9C654.384 128.567 657.35 125.233 661.084 122.9C664.817 120.567 668.984 119.4 673.584 119.4ZM690.784 148.1C690.784 143.833 689.584 140.467 687.184 138C684.85 135.533 681.984 134.3 678.584 134.3C675.184 134.3 672.284 135.533 669.884 138C667.55 140.4 666.384 143.733 666.384 148C666.384 152.267 667.55 155.667 669.884 158.2C672.284 160.667 675.184 161.9 678.584 161.9C681.984 161.9 684.85 160.667 687.184 158.2C689.584 155.733 690.784 152.367 690.784 148.1ZM745.655 176.8C740.188 176.8 735.255 175.633 730.855 173.3C726.521 170.967 723.088 167.633 720.555 163.3C718.088 158.967 716.855 153.9 716.855 148.1C716.855 142.367 718.121 137.333 720.655 133C723.188 128.6 726.655 125.233 731.055 122.9C735.455 120.567 740.388 119.4 745.855 119.4C751.321 119.4 756.255 120.567 760.655 122.9C765.055 125.233 768.521 128.6 771.055 133C773.588 137.333 774.855 142.367 774.855 148.1C774.855 153.833 773.555 158.9 770.955 163.3C768.421 167.633 764.921 170.967 760.455 173.3C756.055 175.633 751.121 176.8 745.655 176.8ZM745.655 162C748.921 162 751.688 160.8 753.955 158.4C756.288 156 757.455 152.567 757.455 148.1C757.455 143.633 756.321 140.2 754.055 137.8C751.855 135.4 749.121 134.2 745.855 134.2C742.521 134.2 739.755 135.4 737.555 137.8C735.355 140.133 734.255 143.567 734.255 148.1C734.255 152.567 735.321 156 737.455 158.4C739.655 160.8 742.388 162 745.655 162Z" fill="#0056FC"/>
<path d="M339.945 220.02C339.945 218.66 340.258 217.44 340.885 216.36C341.525 215.28 342.385 214.44 343.465 213.84C344.558 213.227 345.752 212.92 347.045 212.92C348.525 212.92 349.838 213.287 350.985 214.02C352.145 214.74 352.985 215.767 353.505 217.1H350.765C350.405 216.367 349.905 215.82 349.265 215.46C348.625 215.1 347.885 214.92 347.045 214.92C346.125 214.92 345.305 215.127 344.585 215.54C343.865 215.953 343.298 216.547 342.885 217.32C342.485 218.093 342.285 218.993 342.285 220.02C342.285 221.047 342.485 221.947 342.885 222.72C343.298 223.493 343.865 224.093 344.585 224.52C345.305 224.933 346.125 225.14 347.045 225.14C347.885 225.14 348.625 224.96 349.265 224.6C349.905 224.24 350.405 223.693 350.765 222.96H353.505C352.985 224.293 352.145 225.32 350.985 226.04C349.838 226.76 348.525 227.12 347.045 227.12C345.738 227.12 344.545 226.82 343.465 226.22C342.385 225.607 341.525 224.76 340.885 223.68C340.258 222.6 339.945 221.38 339.945 220.02ZM366.514 227.14C365.22 227.14 364.027 226.84 362.934 226.24C361.854 225.627 360.994 224.78 360.354 223.7C359.727 222.607 359.414 221.38 359.414 220.02C359.414 218.66 359.727 217.44 360.354 216.36C360.994 215.28 361.854 214.44 362.934 213.84C364.027 213.227 365.22 212.92 366.514 212.92C367.82 212.92 369.014 213.227 370.094 213.84C371.187 214.44 372.047 215.28 372.674 216.36C373.3 217.44 373.614 218.66 373.614 220.02C373.614 221.38 373.3 222.607 372.674 223.7C372.047 224.78 371.187 225.627 370.094 226.24C369.014 226.84 367.82 227.14 366.514 227.14ZM366.514 225.16C367.434 225.16 368.254 224.953 368.974 224.54C369.694 224.113 370.254 223.513 370.654 222.74C371.067 221.953 371.274 221.047 371.274 220.02C371.274 218.993 371.067 218.093 370.654 217.32C370.254 216.547 369.694 215.953 368.974 215.54C368.254 215.127 367.434 214.92 366.514 214.92C365.594 214.92 364.774 215.127 364.054 215.54C363.334 215.953 362.767 216.547 362.354 217.32C361.954 218.093 361.754 218.993 361.754 220.02C361.754 221.047 361.954 221.953 362.354 222.74C362.767 223.513 363.334 224.113 364.054 224.54C364.774 224.953 365.594 225.16 366.514 225.16ZM394.497 213.1V227H392.217V217.48L387.977 227H386.397L382.137 217.48V227H379.857V213.1H382.317L387.197 224L392.057 213.1H394.497ZM416.134 213.1V227H413.854V217.48L409.614 227H408.034L403.774 217.48V227H401.494V213.1H403.954L408.834 224L413.694 213.1H416.134ZM425.411 213.1V227H423.131V213.1H425.411ZM441.384 213.1V214.96H437.684V227H435.404V214.96H431.684V213.1H441.384ZM456.673 213.1V214.96H452.973V227H450.693V214.96H446.973V213.1H456.673ZM465.262 214.94V219.02H470.062V220.88H465.262V225.14H470.662V227H462.982V213.08H470.662V214.94H465.262ZM482.011 213.1C483.491 213.1 484.784 213.387 485.891 213.96C487.011 214.52 487.871 215.333 488.471 216.4C489.084 217.453 489.391 218.687 489.391 220.1C489.391 221.513 489.084 222.74 488.471 223.78C487.871 224.82 487.011 225.62 485.891 226.18C484.784 226.727 483.491 227 482.011 227H477.471V213.1H482.011ZM482.011 225.14C483.637 225.14 484.884 224.7 485.751 223.82C486.617 222.94 487.051 221.7 487.051 220.1C487.051 218.487 486.617 217.227 485.751 216.32C484.884 215.413 483.637 214.96 482.011 214.96H479.751V225.14H482.011ZM513.826 213.1V214.96H510.126V227H507.846V214.96H504.126V213.1H513.826ZM526.475 227.14C525.181 227.14 523.988 226.84 522.895 226.24C521.815 225.627 520.955 224.78 520.315 223.7C519.688 222.607 519.375 221.38 519.375 220.02C519.375 218.66 519.688 217.44 520.315 216.36C520.955 215.28 521.815 214.44 522.895 213.84C523.988 213.227 525.181 212.92 526.475 212.92C527.781 212.92 528.975 213.227 530.055 213.84C531.148 214.44 532.008 215.28 532.635 216.36C533.261 217.44 533.575 218.66 533.575 220.02C533.575 221.38 533.261 222.607 532.635 223.7C532.008 224.78 531.148 225.627 530.055 226.24C528.975 226.84 527.781 227.14 526.475 227.14ZM526.475 225.16C527.395 225.16 528.215 224.953 528.935 224.54C529.655 224.113 530.215 223.513 530.615 222.74C531.028 221.953 531.235 221.047 531.235 220.02C531.235 218.993 531.028 218.093 530.615 217.32C530.215 216.547 529.655 215.953 528.935 215.54C528.215 215.127 527.395 214.92 526.475 214.92C525.555 214.92 524.735 215.127 524.015 215.54C523.295 215.953 522.728 216.547 522.315 217.32C521.915 218.093 521.715 218.993 521.715 220.02C521.715 221.047 521.915 221.953 522.315 222.74C522.728 223.513 523.295 224.113 524.015 224.54C524.735 224.953 525.555 225.16 526.475 225.16ZM551.294 214.94V219.02H556.094V220.88H551.294V225.14H556.694V227H549.014V213.08H556.694V214.94H551.294ZM569.882 220.06L574.202 227H571.642L568.502 221.96L565.562 227H563.022L567.342 220.06L563.002 213.1H565.562L568.722 218.18L571.682 213.1H574.222L569.882 220.06ZM579.945 220.02C579.945 218.66 580.258 217.44 580.885 216.36C581.525 215.28 582.385 214.44 583.465 213.84C584.558 213.227 585.752 212.92 587.045 212.92C588.525 212.92 589.838 213.287 590.985 214.02C592.145 214.74 592.985 215.767 593.505 217.1H590.765C590.405 216.367 589.905 215.82 589.265 215.46C588.625 215.1 587.885 214.92 587.045 214.92C586.125 214.92 585.305 215.127 584.585 215.54C583.865 215.953 583.298 216.547 582.885 217.32C582.485 218.093 582.285 218.993 582.285 220.02C582.285 221.047 582.485 221.947 582.885 222.72C583.298 223.493 583.865 224.093 584.585 224.52C585.305 224.933 586.125 225.14 587.045 225.14C587.885 225.14 588.625 224.96 589.265 224.6C589.905 224.24 590.405 223.693 590.765 222.96H593.505C592.985 224.293 592.145 225.32 590.985 226.04C589.838 226.76 588.525 227.12 587.045 227.12C585.738 227.12 584.545 226.82 583.465 226.22C582.385 225.607 581.525 224.76 580.885 223.68C580.258 222.6 579.945 221.38 579.945 220.02ZM602.454 214.94V219.02H607.254V220.88H602.454V225.14H607.854V227H600.174V213.08H607.854V214.94H602.454ZM616.942 225.16H621.642V227H614.662V213.1H616.942V225.16ZM629.829 225.16H634.529V227H627.549V213.1H629.829V225.16ZM642.716 214.94V219.02H647.516V220.88H642.716V225.14H648.116V227H640.436V213.08H648.116V214.94H642.716ZM666.344 227H664.064L657.204 216.62V227H654.924V213.08H657.204L664.064 223.44V213.08H666.344V227ZM672.578 220.02C672.578 218.66 672.891 217.44 673.518 216.36C674.158 215.28 675.018 214.44 676.098 213.84C677.191 213.227 678.385 212.92 679.678 212.92C681.158 212.92 682.471 213.287 683.618 214.02C684.778 214.74 685.618 215.767 686.138 217.1H683.398C683.038 216.367 682.538 215.82 681.898 215.46C681.258 215.1 680.518 214.92 679.678 214.92C678.758 214.92 677.938 215.127 677.218 215.54C676.498 215.953 675.931 216.547 675.518 217.32C675.118 218.093 674.918 218.993 674.918 220.02C674.918 221.047 675.118 221.947 675.518 222.72C675.931 223.493 676.498 224.093 677.218 224.52C677.938 224.933 678.758 225.14 679.678 225.14C680.518 225.14 681.258 224.96 681.898 224.6C682.538 224.24 683.038 223.693 683.398 222.96H686.138C685.618 224.293 684.778 225.32 683.618 226.04C682.471 226.76 681.158 227.12 679.678 227.12C678.371 227.12 677.178 226.82 676.098 226.22C675.018 225.607 674.158 224.76 673.518 223.68C672.891 222.6 672.578 221.38 672.578 220.02ZM695.087 214.94V219.02H699.887V220.88H695.087V225.14H700.487V227H692.807V213.08H700.487V214.94H695.087Z" fill="#12243A"/>
<path d="M142.152 28.5968C91.7976 33.7066 49.0213 68.1976 35.38 114.984C31.1698 129.675 30.833 159.854 34.7064 175.503C38.9167 193.228 50.537 213.347 64.1783 227.24C70.9147 233.946 79.672 241.77 83.7139 244.325C101.397 255.982 122.954 263.487 145.352 265.882L154.952 267V253.108V239.375H147.71C127.669 239.375 105.607 229.475 87.5873 212.23C66.8728 192.748 58.4523 173.267 58.6207 145.164C58.6207 119.295 68.7254 97.4192 88.7662 79.5349C100.723 68.996 122.28 58.1377 136.258 55.7425C141.142 54.7844 163.035 54.1457 184.592 54.1457H224V40.5728V27L189.139 27.1597C169.772 27.3193 148.72 27.9581 142.152 28.5968Z" fill="#0056FC"/>
<path d="M134.742 84.1657C109.649 92.1497 92.1344 111.631 87.4189 137.02C81.0193 171.032 109.144 207.439 145.521 212.07L154.952 213.347V199.934C154.952 188.118 154.615 186.681 151.92 186.681C145.184 186.681 133.395 181.411 127.164 175.822C118.575 167.998 114.196 158.258 114.196 146.92C114.196 136.222 117.228 128.717 124.638 120.573C144.173 99.495 178.866 103.806 192.507 129.036L197.054 137.818V202.17V266.521H210.527H224V200.573C224 139.256 223.832 133.826 220.8 125.523C214.569 108.277 201.433 94.7046 183.581 86.5609C171.287 80.9721 148.72 79.8543 134.742 84.1657Z" fill="#12243A"/>
</svg>
